<?xml version="1.0" encoding="UTF-8" standalone="no"?>
<svg
   width="500"
   height="500"
   version="1.1"
   id="svg20"
   sodipodi:docname="mskewb.svg"
   inkscape:version="1.2 (dc2aedaf03, 2022-05-15)"
   xmlns:inkscape="http://www.inkscape.org/namespaces/inkscape"
   xmlns:sodipodi="http://sodipodi.sourceforge.net/DTD/sodipodi-0.dtd"
   xmlns="http://www.w3.org/2000/svg"
   xmlns:svg="http://www.w3.org/2000/svg">
  <defs
     id="defs24" />
  <sodipodi:namedview
     id="namedview22"
     pagecolor="#505050"
     bordercolor="#eeeeee"
     borderopacity="1"
     inkscape:showpageshadow="0"
     inkscape:pageopacity="0"
     inkscape:pagecheckerboard="0"
     inkscape:deskcolor="#505050"
     showgrid="false"
     inkscape:zoom="0.6045763"
     inkscape:cx="-0.82702547"
     inkscape:cy="272.91841"
     inkscape:window-width="1440"
     inkscape:window-height="877"
     inkscape:window-x="-8"
     inkscape:window-y="428"
     inkscape:window-maximized="1"
     inkscape:current-layer="svg20" />
  <path
     id="path14"
     style="fill-rule:evenodd"
     d="M 30 30 L 30 123.0293 L 123.0293 30 L 30 30 z M 156.9707 30 L 250 123.03125 L 343.03125 30 L 156.9707 30 z M 376.9707 30 L 470 123.03125 L 470 30 L 376.9707 30 z M 140 46.96875 L 46.96875 140 L 140 233.03125 L 233.03125 140 L 140 46.96875 z M 360 46.96875 L 266.96875 140 L 360 233.03125 L 453.03125 140 L 360 46.96875 z M 250 156.96875 L 156.96875 250 L 250 343.03125 L 343.03125 250 L 250 156.96875 z M 30 156.9707 L 30 343.0293 L 123.03125 250 L 30 156.9707 z M 470 156.9707 L 376.96875 250 L 470 343.03125 L 470 156.9707 z M 140 266.96875 L 46.96875 360 L 140 453.03125 L 233.03125 360 L 140 266.96875 z M 360 266.96875 L 266.96875 360 L 360 453.03125 L 453.03125 360 L 360 266.96875 z M 250 376.96875 L 156.9707 470 L 343.03125 470 L 250 376.96875 z M 30 376.9707 L 30 470 L 123.03125 470 L 30 376.9707 z M 470 376.9707 L 376.96875 470 L 470 470 L 470 376.9707 z " />
</svg>
